<?xml version="1.0" encoding="UTF-8"?>
<svg id="Layer_1" xmlns="http://www.w3.org/2000/svg" version="1.1" viewBox="0 0 406 406">
  <!-- Generator: Adobe Illustrator 30.5.0, SVG Export Plug-In . SVG Version: 2.1.4 Build 167)  -->
  <defs>
    <style>
      .st0 {
        stroke-width: 11px;
      }

      .st0, .st1 {
        fill: none;
        stroke: #3a2e1a;
        stroke-linecap: round;
      }

      .st2 {
        fill: #ffc05f;
        stroke: #e08f18;
      }

      .st2, .st3 {
        stroke-width: 10px;
      }

      .st3 {
        fill: #ffd966;
        stroke: #e0ad1f;
      }

      .st1 {
        stroke-width: 16px;
      }

      .st4 {
        fill: #3a2e1a;
      }

      .st5 {
        fill: #ff9eae;
        isolation: isolate;
        opacity: .55;
      }
    </style>
  </defs>
  <circle class="st3" cx="203" cy="203" r="198"/>
  <path class="st1" d="M89,131c22.67-6.67,45.33-8,68-4"/>
  <path class="st1" d="M253.64,130.13c22.67-4,45.33-2.67,68,4"/>
  <path class="st0" d="M99,185c16-18.67,32-18.67,48,0"/>
  <path class="st0" d="M259,185c16-18.67,32-18.67,48,0"/>
  <ellipse class="st5" cx="93" cy="247" rx="30" ry="18"/>
  <ellipse class="st5" cx="313" cy="247" rx="30" ry="18"/>
  <path class="st4" d="M137,269c44,52,88,52,132,0-44,33.33-88,33.33-132,0Z"/>
  <circle class="st2" cx="203" cy="203" r="198"/>
  <circle class="st4" cx="123" cy="177.55" r="20"/>
  <circle class="st4" cx="283" cy="177.55" r="20"/>
  <g>
    <path class="st1" d="M89,119c22.67-6.67,45.33-8,68-4"/>
    <path class="st1" d="M249,115c22.67-4,45.33-2.67,68,4"/>
  </g>
  <path class="st1" d="M153.67,286.27c28.3,21.69,60.92,23.73,97.88,6.11"/>
</svg>